<?xml version="1.0" encoding="UTF-8" standalone="no"?>
<svg
   xmlns:dc="http://purl.org/dc/elements/1.1/"
   xmlns:cc="http://creativecommons.org/ns#"
   xmlns:rdf="http://www.w3.org/1999/02/22-rdf-syntax-ns#"
   xmlns:svg="http://www.w3.org/2000/svg"
   xmlns="http://www.w3.org/2000/svg"
   height="32"
   width="32"
   id="svg12"
   version="1.1"
   viewBox="0 0 31.999998 31.999998">
  <metadata
     id="metadata18">
    <rdf:RDF>
      <cc:Work
         rdf:about="">
        <dc:format>image/svg+xml</dc:format>
        <dc:type
           rdf:resource="http://purl.org/dc/dcmitype/StillImage" />
        <dc:title></dc:title>
      </cc:Work>
    </rdf:RDF>
  </metadata>
  <defs
     id="defs16" />
  <g
     transform="matrix(0.13763391,0,0,0.12093228,-2.5551769,-0.38395999)"
     id="g10"
     fill="#ffffff">
    <path
       id="path2"
       d="m 169.728,110.902 c -2.508,0.056 -4.534,2.12 -5.52,4.234 0.47,2.772 -0.59,6.558 -3.918,6.543 -2.923,0.06 -3.76,-4.1 -6.992,-3.37 -4.524,-0.25 -7.22,5.53 -4.95,9.11 1.435,3.28 -2.694,6.68 -5.583,4.57 -4.082,-2.03 -9.048,2.49 -7.667,6.9 0.268,2.82 4.583,4.17 2.746,7.55 -0.806,3.07 -4.458,2.04 -6.692,2.89 -3.327,2.04 -4.107,6.54 -1.936,9.78 1.68,1.93 5.557,2.39 5.117,5.73 0.33,3.23 -3.152,3.73 -4.95,5.4 -2.164,3.09 -1.835,7.62 1.44,9.74 2.048,1.58 6.183,-0.14 7.02,3.18 1.112,3.01 -1.276,4.03 -2.467,6.17 -0.6,3.15 0.257,7.5 3.55,8.48 2.747,1.58 5.977,-2.54 8.417,0.22 2.362,1.922 0.564,4.93 0.045,7.31 0.306,3.67 3.608,7.01 7.517,5.803 2.514,-0.86 4.323,-4.99 7.517,-2.49 2.972,1.893 0.52,6.68 3.81,8.555 2.778,2.93 8.507,1.17 9.408,-2.7 1.058,-3.314 6.357,-3.303 7.307,0.06 0.824,3.256 4.814,4.853 7.863,3.723 2.795,-1.41 4.4,-4.52 3.84,-7.73 0.896,-3.073 5.28,-3.38 6.947,-0.763 2.63,3.15 8.4,1.2 9.048,-2.7 1.628,-2.84 -2.49,-6.19 0.255,-8.764 1.732,-2.455 4.695,-0.67 6.903,-0.09 3.97,-0.295 6.94,-4.29 5.48,-8.313 -1.028,-2.173 -4.114,-3.8 -2.66,-6.72 0.83,-2.895 4.335,-2.36 6.617,-2.85 2.955,-1.845 4.423,-5.86 2.45,-8.973 -0.783,-2.755 -4.847,-2.404 -5.405,-5.402 -1.08,-3.433 2.1,-4.96 4.397,-6.21 2.587,-2.74 2.51,-7.66 -0.692,-9.92 -2.162,-1.914 -6.552,0.02 -7.414,-3.573 -1.738,-3.725 3.693,-5.034 2.916,-8.65 0.582,-4.43 -4.913,-7.78 -8.542,-5.263 -3.538,1.457 -6.434,-3.14 -4.396,-6.076 1.696,-3.686 -1.772,-8.86 -6.076,-7.91 -3.093,-0.16 -4.198,4.86 -7.608,2.944 -3.12,-0.89 -1.988,-4.83 -2.926,-7.08 -1.57,-2.732 -5.21,-4.44 -8.116,-2.55 -3.148,0.894 -2.437,5.875 -6.153,5.87 -3.467,0.63 -3.943,-3.16 -5.536,-5.06 -1.23,-0.916 -2.85,-1.55 -4.42,-1.62 z m 9.525,40.527 c 8.588,-0.26 14.953,9.24 12.273,17.3 -1.758,6.79 -9.6,11.58 -16.52,8.78 -7.364,-2.51 -10.82,-12.19 -7.037,-19.05 2.09,-4.21 6.49,-7.11 11.28,-7.05 z" />
    <path
       id="path4"
       d="m 101.15,159.967 c -0.942,-0.034 -1.904,0.195 -2.812,0.76 -3.24,0.833 -2.55,6.026 -6.348,5.928 -3.49,0.542 -3.78,-3.347 -5.552,-5.208 -2.8,-2.246 -7.234,-1.81 -9.093,1.396 -1.694,2.18 0.147,6.453 -3.18,7.563 -3.004,1.607 -4.376,-2.023 -6.664,-2.84 -4.67,-1.7 -8.94,3.615 -7.14,7.804 2.19,3.03 -1.14,7.865 -4.71,5.88 -3.98,-2.39 -9.41,1.813 -8.14,6.394 -0.06,2.94 4.49,4.297 2.84,7.624 -0.68,3.07 -4.26,2.575 -6.63,3.033 -2.86,1.85 -4.4,5.64 -2.56,8.83 0.81,3.03 5.61,2.66 5.6,6.28 0.57,3.1 -2.46,4.34 -4.56,5.54 -2.59,2.94 -2.34,7.94 1.05,10.11 1.98,1.59 5.66,-0.08 6.89,2.75 1.56,2.64 -0.63,4.77 -2.17,6.6 -1.83,3.7 0.55,8.26 4.53,8.83 2.39,0.34 5.13,-2.48 7.24,-0.19 2.41,1.91 0.647,4.92 0.18,7.29 0.1,3.97 4.03,7.57 8.16,5.72 1.89,-1.35 3.63,-4.23 6.397,-2.55 3.53,1.68 0.84,6.99 4.35,8.96 2.88,2.67 8.315,1.04 9.26,-2.83 0.99,-3.32 6.395,-3.34 7.31,0.04 0.98,3.61 6.063,5.43 9,2.99 2.173,-1.61 3.07,-4.13 2.7,-6.89 0.75,-3.13 5.303,-3.51 6.95,-0.85 2.633,3.07 8.27,1.23 9.04,-2.61 1.647,-2.89 -2.452,-6.4 0.348,-8.97 1.8,-2.38 4.66,-0.49 6.875,0 3.965,-0.31 6.97,-4.39 5.415,-8.42 -2.064,-2.21 -4.505,-5.89 -1.35,-8.4 2.115,-1.33 5.36,0.08 6.84,-2.45 3.246,-2.85 1.9,-9.2 -2.263,-10.35 -3.292,-1.442 -2.9,-6.9 0.59,-7.86 3.95,-1.51 4.717,-7.76 1.46,-10.444 -1.875,-2.66 -6.48,-0.17 -7.67,-3.545 -1.356,-2.1 0.125,-4.44 2.09,-6.483 0.95,-2.385 0.73,-4.27 -0.106,-5.783 -0.837,-1.513 -2.28,-2.663 -4.12,-2.952 -2.445,-0.6 -5.37,2.46 -7.517,0.066 -2.33,-1.96 -0.59,-4.91 -0.11,-7.266 -0.135,-3.554 -3.258,-6.973 -7.08,-5.9 -2.737,0.227 -3.83,4.64 -7.067,2.93 -3.26,-0.91 -1.97,-4.91 -3.07,-7.216 -1.1,-1.846 -3.08,-3.19 -5.15,-3.27 z m -9.43,40.526 c 8.975,-0.327 15.42,10.207 11.868,18.34 -2.208,6.577 -10.552,10.72 -17.09,7.324 C 79.265,223.084 76.65,213 80.99,206.559 c 2.18,-3.68 6.354,-6.2 10.73,-6.07 z" />
    <path
       id="path6"
       d="m 112.124,164.403 c -4.066,-0.04 -7.11,-4.287 -6.167,-8.233 l 0.09,-120.895 102.823,-32.1 0.035,108.136 c 0.024,3.91 -4.14,7.41 -7.777,6.4 -4.25,-1.05 -4.698,-4.11 -5.327,-6.4 l -0.21,-70.52 -76.77,23.93 -0.27,94.48 c -0.7,2.93 -3.34,5.34 -6.42,5.22 z" />
    <path
       id="path8"
       d="m 197.498,115.385 c 0,-0.06 -0.015,-0.075 -0.075,-0.075 -0.06,0 -0.075,0.014 -0.075,0.075 0,0.06 0.015,0.075 0.075,0.075 0.06,0 0.075,-0.014 0.075,-0.075 z m -1.448,-3.597 c 0.01,-0.372 -0.016,-0.477 -0.1,-0.406 -0.045,0.036 -0.063,0.716 -0.02,0.758 0.083,0.084 0.113,-0.003 0.12,-0.352 z m 3.85,5.716 c 0,-0.014 0.033,-0.033 0.074,-0.04 0.05,-0.01 0.075,-0.002 0.075,0.024 0,0.023 -0.04,0.04 -0.08,0.04 -0.04,0 -0.08,-0.01 -0.08,-0.024 z m -0.66,-0.394 c 0,-0.017 0.012,-0.03 0.03,-0.03 0.015,0 0.03,0.014 0.03,0.03 0,0.017 -0.015,0.03 -0.03,0.03 -0.018,0 -0.03,-0.014 -0.03,-0.03 z m -0.482,-0.3 c 0,-0.023 0.01,-0.03 0.02,-0.02 0.012,0.012 0.012,0.03 0,0.04 -0.01,0.012 -0.02,0.002 -0.02,-0.02 z m -0.3,-0.18 c 0,-0.017 0.014,-0.03 0.03,-0.03 0.017,0 0.03,0.014 0.03,0.03 0,0.017 -0.013,0.03 -0.03,0.03 -0.016,0 -0.03,-0.014 -0.03,-0.03 z m -0.09,-0.09 c 0,-0.017 0.014,-0.03 0.03,-0.03 0.017,0 0.03,0.014 0.03,0.03 0,0.017 -0.013,0.03 -0.03,0.03 -0.016,0 -0.03,-0.014 -0.03,-0.03 z m -0.09,-0.105 c 0,-0.01 0.007,-0.014 0.015,-0.014 0.01,0 0.015,0.01 0.015,0.02 0,0.01 -0.006,0.02 -0.015,0.02 -0.008,0 -0.015,0 -0.015,-0.01 z m -0.69,-0.675 c 0,-0.017 0.014,-0.03 0.03,-0.03 0.017,0 0.03,0.014 0.03,0.03 0,0.017 -0.013,0.03 -0.03,0.03 -0.016,0 -0.03,-0.014 -0.03,-0.03 z m -0.09,-0.09 c 0,-0.017 0.014,-0.03 0.03,-0.03 0.017,0 0.03,0.014 0.03,0.03 0,0.017 -0.014,0.03 -0.03,0.03 -0.016,0 -0.03,-0.014 -0.03,-0.03 z m 10.442,-0.945 c 0,-0.01 0.008,-0.015 0.016,-0.015 0.008,0 0.015,0.006 0.015,0.015 0,0.008 0,0.014 -0.01,0.014 -0.01,0 -0.01,-0.01 -0.01,-0.02 z" />
  </g>
</svg>
